<mxfile host="Electron" agent="Mozilla/5.0 (Windows NT 10.0; Win64; x64) AppleWebKit/537.36 (KHTML, like Gecko) draw.io/28.0.6 Chrome/138.0.7204.100 Electron/37.2.3 Safari/537.36" version="28.0.6">
  <diagram name="Página-1" id="aW_mFAwqHhavEl6hXxHM">
    <mxGraphModel dx="951" dy="561" grid="0" gridSize="10" guides="1" tooltips="1" connect="1" arrows="1" fold="1" page="1" pageScale="1" pageWidth="827" pageHeight="1169" math="0" shadow="0">
      <root>
        <mxCell id="0" />
        <mxCell id="1" parent="0" />
        <mxCell id="tjvuXusXuy5cMlV8Hycd-1" value="Reporte de planilla de pago en el sistema" style="shape=table;startSize=28;container=1;collapsible=0;childLayout=tableLayout;fixedRows=1;rowLines=0;fontStyle=0;strokeColor=default;fontSize=15;fontFamily=Times New Roman;" vertex="1" parent="1">
          <mxGeometry x="34" y="30" width="356.16502463054167" height="111.96551724137929" as="geometry" />
        </mxCell>
        <mxCell id="tjvuXusXuy5cMlV8Hycd-2" value="" style="shape=tableRow;horizontal=0;startSize=0;swimlaneHead=0;swimlaneBody=0;top=0;left=0;bottom=0;right=0;collapsible=0;dropTarget=0;fillColor=none;points=[[0,0.5],[1,0.5]];portConstraint=eastwest;strokeColor=inherit;fontSize=16;fontFamily=Times New Roman;" vertex="1" parent="tjvuXusXuy5cMlV8Hycd-1">
          <mxGeometry y="28" width="356.16502463054167" height="20" as="geometry" />
        </mxCell>
        <mxCell id="tjvuXusXuy5cMlV8Hycd-3" value="&lt;font style=&quot;font-size: 14px;&quot;&gt;Detalle&lt;/font&gt;&lt;div&gt;&lt;br&gt;&lt;/div&gt;" style="shape=partialRectangle;html=1;whiteSpace=wrap;connectable=0;fillColor=none;top=0;left=0;bottom=0;right=0;overflow=hidden;pointerEvents=1;strokeColor=inherit;fontSize=16;fontFamily=Times New Roman;" vertex="1" parent="tjvuXusXuy5cMlV8Hycd-2">
          <mxGeometry width="76" height="20" as="geometry">
            <mxRectangle width="76" height="20" as="alternateBounds" />
          </mxGeometry>
        </mxCell>
        <mxCell id="tjvuXusXuy5cMlV8Hycd-4" value="&lt;font style=&quot;font-size: 14px;&quot;&gt;Ciclo 01-2025&lt;/font&gt;" style="shape=partialRectangle;html=1;whiteSpace=wrap;connectable=0;fillColor=none;top=0;left=0;bottom=0;right=0;align=left;spacingLeft=6;overflow=hidden;strokeColor=inherit;fontSize=16;fontFamily=Times New Roman;" vertex="1" parent="tjvuXusXuy5cMlV8Hycd-2">
          <mxGeometry x="76" width="280" height="20" as="geometry">
            <mxRectangle width="280" height="20" as="alternateBounds" />
          </mxGeometry>
        </mxCell>
        <mxCell id="tjvuXusXuy5cMlV8Hycd-5" value="" style="shape=tableRow;horizontal=0;startSize=0;swimlaneHead=0;swimlaneBody=0;top=0;left=0;bottom=0;right=0;collapsible=0;dropTarget=0;fillColor=none;points=[[0,0.5],[1,0.5]];portConstraint=eastwest;strokeColor=inherit;fontSize=16;fontFamily=Times New Roman;" vertex="1" parent="tjvuXusXuy5cMlV8Hycd-1">
          <mxGeometry y="48" width="356.16502463054167" height="42" as="geometry" />
        </mxCell>
        <mxCell id="tjvuXusXuy5cMlV8Hycd-6" value="&lt;font style=&quot;font-size: 14px;&quot;&gt;Encargado&lt;/font&gt;" style="shape=partialRectangle;html=1;whiteSpace=wrap;connectable=0;fillColor=none;top=0;left=0;bottom=0;right=0;overflow=hidden;strokeColor=inherit;fontSize=16;fontFamily=Times New Roman;" vertex="1" parent="tjvuXusXuy5cMlV8Hycd-5">
          <mxGeometry width="76" height="42" as="geometry">
            <mxRectangle width="76" height="42" as="alternateBounds" />
          </mxGeometry>
        </mxCell>
        <mxCell id="tjvuXusXuy5cMlV8Hycd-7" value="&lt;span style=&quot;font-size: 14px;&quot;&gt;Juan José, Mesalina Ramírez, Luis Lemus y Mauricio Chinchilla&lt;/span&gt;" style="shape=partialRectangle;html=1;whiteSpace=wrap;connectable=0;fillColor=none;top=0;left=0;bottom=0;right=0;align=left;spacingLeft=6;overflow=hidden;strokeColor=inherit;fontSize=16;fontFamily=Times New Roman;" vertex="1" parent="tjvuXusXuy5cMlV8Hycd-5">
          <mxGeometry x="76" width="280" height="42" as="geometry">
            <mxRectangle width="280" height="42" as="alternateBounds" />
          </mxGeometry>
        </mxCell>
        <mxCell id="tjvuXusXuy5cMlV8Hycd-8" value="" style="shape=tableRow;horizontal=0;startSize=0;swimlaneHead=0;swimlaneBody=0;top=0;left=0;bottom=0;right=0;collapsible=0;dropTarget=0;fillColor=none;points=[[0,0.5],[1,0.5]];portConstraint=eastwest;strokeColor=inherit;fontSize=16;fontFamily=Times New Roman;" vertex="1" parent="tjvuXusXuy5cMlV8Hycd-1">
          <mxGeometry y="90" width="356.16502463054167" height="20" as="geometry" />
        </mxCell>
        <mxCell id="tjvuXusXuy5cMlV8Hycd-9" value="" style="shape=partialRectangle;html=1;whiteSpace=wrap;connectable=0;fillColor=none;top=0;left=0;bottom=0;right=0;overflow=hidden;strokeColor=inherit;fontSize=16;fontFamily=Times New Roman;" vertex="1" parent="tjvuXusXuy5cMlV8Hycd-8">
          <mxGeometry width="76" height="20" as="geometry">
            <mxRectangle width="76" height="20" as="alternateBounds" />
          </mxGeometry>
        </mxCell>
        <mxCell id="tjvuXusXuy5cMlV8Hycd-10" value="" style="shape=partialRectangle;html=1;whiteSpace=wrap;connectable=0;fillColor=none;top=0;left=0;bottom=0;right=0;align=left;spacingLeft=6;overflow=hidden;strokeColor=inherit;fontSize=16;fontFamily=Times New Roman;" vertex="1" parent="tjvuXusXuy5cMlV8Hycd-8">
          <mxGeometry x="76" width="280" height="20" as="geometry">
            <mxRectangle width="280" height="20" as="alternateBounds" />
          </mxGeometry>
        </mxCell>
        <mxCell id="tjvuXusXuy5cMlV8Hycd-13" value="" style="edgeStyle=orthogonalEdgeStyle;rounded=0;orthogonalLoop=1;jettySize=auto;html=1;" edge="1" parent="1" source="tjvuXusXuy5cMlV8Hycd-11" target="tjvuXusXuy5cMlV8Hycd-12">
          <mxGeometry relative="1" as="geometry" />
        </mxCell>
        <mxCell id="tjvuXusXuy5cMlV8Hycd-11" value="Reporte de planilla de pago en el sistema" style="rounded=0;whiteSpace=wrap;html=1;fillColor=#dae8fc;strokeColor=#6c8ebf;fontFamily=Times New Roman;fontSize=13;" vertex="1" parent="1">
          <mxGeometry x="361.5" y="172" width="120" height="60" as="geometry" />
        </mxCell>
        <mxCell id="tjvuXusXuy5cMlV8Hycd-15" value="" style="edgeStyle=orthogonalEdgeStyle;rounded=0;orthogonalLoop=1;jettySize=auto;html=1;" edge="1" parent="1" source="tjvuXusXuy5cMlV8Hycd-12" target="tjvuXusXuy5cMlV8Hycd-14">
          <mxGeometry relative="1" as="geometry" />
        </mxCell>
        <mxCell id="tjvuXusXuy5cMlV8Hycd-12" value="El área encargada envía por correo eléctronico el archivo de tiempos (1 archivo de Excel, 1 archivo PDF)" style="whiteSpace=wrap;html=1;fontSize=13;fontFamily=Times New Roman;rounded=0;" vertex="1" parent="1">
          <mxGeometry x="278.5" y="274" width="287" height="48" as="geometry" />
        </mxCell>
        <mxCell id="tjvuXusXuy5cMlV8Hycd-19" value="" style="edgeStyle=orthogonalEdgeStyle;rounded=0;orthogonalLoop=1;jettySize=auto;html=1;" edge="1" parent="1" source="tjvuXusXuy5cMlV8Hycd-14" target="tjvuXusXuy5cMlV8Hycd-18">
          <mxGeometry relative="1" as="geometry" />
        </mxCell>
        <mxCell id="tjvuXusXuy5cMlV8Hycd-14" value="El área técnica realiza una comparación de los archivos recibidos (1 archivo de Excel y un archivo PDF)" style="whiteSpace=wrap;html=1;fontSize=13;fontFamily=Times New Roman;rounded=0;" vertex="1" parent="1">
          <mxGeometry x="343" y="358" width="157" height="74" as="geometry" />
        </mxCell>
        <mxCell id="tjvuXusXuy5cMlV8Hycd-23" value="" style="edgeStyle=orthogonalEdgeStyle;rounded=0;orthogonalLoop=1;jettySize=auto;html=1;" edge="1" parent="1" source="tjvuXusXuy5cMlV8Hycd-18" target="tjvuXusXuy5cMlV8Hycd-22">
          <mxGeometry relative="1" as="geometry" />
        </mxCell>
        <mxCell id="tjvuXusXuy5cMlV8Hycd-31" value="" style="edgeStyle=orthogonalEdgeStyle;rounded=0;orthogonalLoop=1;jettySize=auto;html=1;" edge="1" parent="1" source="tjvuXusXuy5cMlV8Hycd-18" target="tjvuXusXuy5cMlV8Hycd-30">
          <mxGeometry relative="1" as="geometry" />
        </mxCell>
        <mxCell id="tjvuXusXuy5cMlV8Hycd-18" value="¿Incoherencia?" style="rhombus;whiteSpace=wrap;html=1;fontSize=13;fontFamily=Times New Roman;rounded=0;" vertex="1" parent="1">
          <mxGeometry x="365.5" y="463" width="113" height="87" as="geometry" />
        </mxCell>
        <mxCell id="tjvuXusXuy5cMlV8Hycd-20" value="SI" style="text;html=1;align=center;verticalAlign=middle;resizable=0;points=[];autosize=1;strokeColor=none;fillColor=none;fontFamily=Times New Roman;" vertex="1" parent="1">
          <mxGeometry x="464" y="509" width="29" height="26" as="geometry" />
        </mxCell>
        <mxCell id="tjvuXusXuy5cMlV8Hycd-21" value="NO" style="text;html=1;align=center;verticalAlign=middle;resizable=0;points=[];autosize=1;strokeColor=none;fillColor=none;fontFamily=Times New Roman;" vertex="1" parent="1">
          <mxGeometry x="346" y="509" width="35" height="26" as="geometry" />
        </mxCell>
        <mxCell id="tjvuXusXuy5cMlV8Hycd-33" value="" style="edgeStyle=orthogonalEdgeStyle;rounded=0;orthogonalLoop=1;jettySize=auto;html=1;" edge="1" parent="1" source="tjvuXusXuy5cMlV8Hycd-22" target="tjvuXusXuy5cMlV8Hycd-32">
          <mxGeometry relative="1" as="geometry" />
        </mxCell>
        <mxCell id="tjvuXusXuy5cMlV8Hycd-22" value="Se remite al encargado de los tiempos para realizar los cambios necesarios, luego realizar paso 1 y 2" style="whiteSpace=wrap;html=1;fontSize=13;fontFamily=Times New Roman;rounded=0;" vertex="1" parent="1">
          <mxGeometry x="523" y="556" width="168" height="64" as="geometry" />
        </mxCell>
        <mxCell id="tjvuXusXuy5cMlV8Hycd-35" value="" style="edgeStyle=orthogonalEdgeStyle;rounded=0;orthogonalLoop=1;jettySize=auto;html=1;" edge="1" parent="1" source="tjvuXusXuy5cMlV8Hycd-30" target="tjvuXusXuy5cMlV8Hycd-34">
          <mxGeometry relative="1" as="geometry" />
        </mxCell>
        <mxCell id="tjvuXusXuy5cMlV8Hycd-30" value="El área técnica convierte el archivo de tiempos en formato CSV para subirlo en la plataforma de migraciones Utec" style="whiteSpace=wrap;html=1;fontSize=13;fontFamily=Times New Roman;rounded=0;" vertex="1" parent="1">
          <mxGeometry x="58" y="559" width="196" height="64" as="geometry" />
        </mxCell>
        <mxCell id="tjvuXusXuy5cMlV8Hycd-37" value="" style="edgeStyle=orthogonalEdgeStyle;rounded=0;orthogonalLoop=1;jettySize=auto;html=1;" edge="1" parent="1" source="tjvuXusXuy5cMlV8Hycd-32" target="tjvuXusXuy5cMlV8Hycd-36">
          <mxGeometry relative="1" as="geometry" />
        </mxCell>
        <mxCell id="tjvuXusXuy5cMlV8Hycd-32" value="El área técnica convierte el archivo de tiempos en formato CSV para subirlo en la plataforma de migraciones Utec" style="whiteSpace=wrap;html=1;fontSize=13;fontFamily=Times New Roman;rounded=0;" vertex="1" parent="1">
          <mxGeometry x="509" y="657" width="196" height="64" as="geometry" />
        </mxCell>
        <mxCell id="tjvuXusXuy5cMlV8Hycd-40" value="" style="edgeStyle=orthogonalEdgeStyle;rounded=0;orthogonalLoop=1;jettySize=auto;html=1;" edge="1" parent="1" source="tjvuXusXuy5cMlV8Hycd-34" target="tjvuXusXuy5cMlV8Hycd-39">
          <mxGeometry relative="1" as="geometry" />
        </mxCell>
        <mxCell id="tjvuXusXuy5cMlV8Hycd-34" value="El área técnica realiza el siguiente procedimiento en el sitio: menú de Cargar archivo de horas/Paso 1/Seleccionamos archivo/Subir y se espera que el archivo sea verificado por el sistema" style="whiteSpace=wrap;html=1;fontSize=13;fontFamily=Times New Roman;rounded=0;" vertex="1" parent="1">
          <mxGeometry x="42" y="662" width="228" height="88" as="geometry" />
        </mxCell>
        <mxCell id="tjvuXusXuy5cMlV8Hycd-42" value="" style="edgeStyle=orthogonalEdgeStyle;rounded=0;orthogonalLoop=1;jettySize=auto;html=1;" edge="1" parent="1" source="tjvuXusXuy5cMlV8Hycd-36" target="tjvuXusXuy5cMlV8Hycd-41">
          <mxGeometry relative="1" as="geometry" />
        </mxCell>
        <mxCell id="tjvuXusXuy5cMlV8Hycd-36" value="El área técnica realiza el siguiente procedimiento en el sitio: menú de Cargar archivo de horas/Paso 1/Seleccionamos archivo/Subir y se espera que el archivo sea verificado por el sistema" style="whiteSpace=wrap;html=1;fontSize=13;fontFamily=Times New Roman;rounded=0;" vertex="1" parent="1">
          <mxGeometry x="493" y="758" width="228" height="88" as="geometry" />
        </mxCell>
        <mxCell id="tjvuXusXuy5cMlV8Hycd-44" value="" style="edgeStyle=orthogonalEdgeStyle;rounded=0;orthogonalLoop=1;jettySize=auto;html=1;" edge="1" parent="1" source="tjvuXusXuy5cMlV8Hycd-39" target="tjvuXusXuy5cMlV8Hycd-43">
          <mxGeometry relative="1" as="geometry" />
        </mxCell>
        <mxCell id="tjvuXusXuy5cMlV8Hycd-39" value="El área técnica espera a que se migren los registros eligiendo primeramente el mes correspondiente y la semana 1" style="whiteSpace=wrap;html=1;fontSize=13;fontFamily=Times New Roman;rounded=0;" vertex="1" parent="1">
          <mxGeometry x="73" y="789" width="166" height="74" as="geometry" />
        </mxCell>
        <mxCell id="tjvuXusXuy5cMlV8Hycd-46" value="" style="edgeStyle=orthogonalEdgeStyle;rounded=0;orthogonalLoop=1;jettySize=auto;html=1;" edge="1" parent="1" source="tjvuXusXuy5cMlV8Hycd-41" target="tjvuXusXuy5cMlV8Hycd-45">
          <mxGeometry relative="1" as="geometry" />
        </mxCell>
        <mxCell id="tjvuXusXuy5cMlV8Hycd-41" value="El área técnica espera a que se migren los registros eligiendo primeramente el mes correspondiente y la semana 1" style="whiteSpace=wrap;html=1;fontSize=13;fontFamily=Times New Roman;rounded=0;" vertex="1" parent="1">
          <mxGeometry x="523" y="883" width="166" height="74" as="geometry" />
        </mxCell>
        <mxCell id="tjvuXusXuy5cMlV8Hycd-50" value="" style="edgeStyle=orthogonalEdgeStyle;rounded=0;orthogonalLoop=1;jettySize=auto;html=1;" edge="1" parent="1" source="tjvuXusXuy5cMlV8Hycd-43" target="tjvuXusXuy5cMlV8Hycd-49">
          <mxGeometry relative="1" as="geometry" />
        </mxCell>
        <mxCell id="tjvuXusXuy5cMlV8Hycd-43" value="El área técnica realiza una captura de pantalla al resultado de la migración" style="whiteSpace=wrap;html=1;fontSize=13;fontFamily=Times New Roman;rounded=0;" vertex="1" parent="1">
          <mxGeometry x="96" y="902" width="120" height="60" as="geometry" />
        </mxCell>
        <mxCell id="tjvuXusXuy5cMlV8Hycd-48" value="" style="edgeStyle=orthogonalEdgeStyle;rounded=0;orthogonalLoop=1;jettySize=auto;html=1;" edge="1" parent="1" source="tjvuXusXuy5cMlV8Hycd-45" target="tjvuXusXuy5cMlV8Hycd-47">
          <mxGeometry relative="1" as="geometry" />
        </mxCell>
        <mxCell id="tjvuXusXuy5cMlV8Hycd-45" value="El área técnica realiza una captura de pantalla al resultado de la migración" style="whiteSpace=wrap;html=1;fontSize=13;fontFamily=Times New Roman;rounded=0;" vertex="1" parent="1">
          <mxGeometry x="546" y="991" width="120" height="60" as="geometry" />
        </mxCell>
        <mxCell id="tjvuXusXuy5cMlV8Hycd-47" value="El área técnica notifica a la dirección de tecnológica para el registro en el sistema, indicando los minutos según materias de 4 y 6 unidades valorativas." style="whiteSpace=wrap;html=1;fontSize=13;fontFamily=Times New Roman;rounded=0;" vertex="1" parent="1">
          <mxGeometry x="487.5" y="1089" width="237" height="67" as="geometry" />
        </mxCell>
        <mxCell id="tjvuXusXuy5cMlV8Hycd-49" value="El área técnica notifica a la dirección de tecnológica para el registro en el sistema, indicando los minutos según materias de 4 y 6 unidades valorativas." style="whiteSpace=wrap;html=1;fontSize=13;fontFamily=Times New Roman;rounded=0;" vertex="1" parent="1">
          <mxGeometry x="37.5" y="1001" width="237" height="67" as="geometry" />
        </mxCell>
      </root>
    </mxGraphModel>
  </diagram>
</mxfile>
